<?xml version="1.0" standalone="no"?>
<!DOCTYPE svg PUBLIC "-//W3C//DTD SVG 1.1//EN" "http://www.w3.org/Graphics/SVG/1.1/DTD/svg11.dtd" >
<svg xmlns="http://www.w3.org/2000/svg">
<metadata>
This is a custom SVG webfont generated by Font Squirrel.
Copyright   : 251 M Klein   903
</metadata>
<defs>
<font id="webfontTx137F5E" horiz-adv-x="1683" >
<font-face units-per-em="2048" ascent="1638" descent="-410" />
<missing-glyph horiz-adv-x="522" />
<glyph unicode=" "  horiz-adv-x="522" />
<glyph unicode="&#x09;" horiz-adv-x="522" />
<glyph unicode="&#xa0;" horiz-adv-x="522" />
<glyph unicode="!" horiz-adv-x="417" d="M250 303v1159h-82v-1159h82zM285 66q-6 35 -23 51q-23 23 -51 22q-74 -12 -74 -73q0 -74 74 -74q74 13 74 74z" />
<glyph unicode="&#x22;" horiz-adv-x="552" d="M438 1489h-84l23 -328h41zM209 1489h-84l20 -328h43z" />
<glyph unicode="#" horiz-adv-x="1107" d="M1069 1057h-268l61 260h-49l-63 -260h-285l61 260h-49l-63 -260h-285l-16 -49h288l-57 -236h-262l-16 -51h266l-62 -258h49l64 258h287l-68 -268h51l66 268h274l17 51h-279l57 236h265zM739 1008l-57 -236h-287l56 236h288z" />
<glyph unicode="$" horiz-adv-x="970" d="M915 399q0 285 -356 424v563q150 -20 217 -143l78 35q-96 190 -295 190v109h-82v-109q-141 0 -233 -98q-92 -96 -92 -237q0 -152 92 -240q70 -70 233 -127v-696q-250 0 -319 260l-84 -29q37 -150 143 -233q109 -84 260 -84v-109h82v111q174 0 270 123q86 110 86 290z M477 856q-113 45 -166 96q-74 68 -73 172q0 106 65 179q61 68 174 83v-530zM831 399q0 -141 -63 -229q-70 -100 -209 -100v663q272 -111 272 -334z" />
<glyph unicode="%" horiz-adv-x="1087" d="M598 1171q0 104 -76 180t-180 76t-180 -75q-74 -78 -74 -181q0 -98 78 -176q76 -76 176 -75q104 0 182 73q74 69 74 178zM1004 1462h-82l-795 -1462h82zM1008 236q0 104 -76 180t-180 76t-181 -76q-74 -78 -73 -180q0 -98 77 -177q76 -76 177 -75q104 0 182 73 q74 70 74 179zM514 1171q0 -68 -51 -118q-59 -49 -121 -49q-68 0 -119 51q-51 49 -51 116q0 70 51 121q49 51 119 51t121 -51t51 -121zM924 236q0 -66 -54 -119q-53 -49 -118 -49q-68 0 -119 51q-51 49 -51 117q0 70 51 120q49 51 119 52q70 0 121 -51t51 -121z" />
<glyph unicode="&#x26;" horiz-adv-x="1232" d="M1153 420l-45 59l-213 -174l-320 486l150 102q180 123 180 266q0 139 -86 213t-227 74q-123 0 -211 -82q-86 -80 -86 -203q0 -66 31 -129l61 -104l82 -123l-231 -170q-162 -150 -162 -322q0 -143 92 -231q94 -90 242 -90q213 0 462 201l129 -193h97l-162 244zM829 1159 q-2 -37 -10 -55l-28 -53q-20 -29 -46 -52.5t-55 -44.5l-155 -104l-80 121l-58 92q-23 39 -22 98q0 88 65 150q66 59 154 59q106 0 172 -53q63 -52 63 -158zM831 254q-35 -29 -63 -48l-51 -34q-158 -100 -305 -100q-111 0 -181 67q-72 66 -71 174q0 137 131 267 q27 27 80 66.5t137 96.5z" />
<glyph unicode="'" horiz-adv-x="335" d="M211 1462h-86l20 -325h45z" />
<glyph unicode="(" horiz-adv-x="376" d="M303 -127q-154 406 -153 836q0 72 8 162t24 196q20 135 50 253t71 224h-72q-154 -410 -153 -835q0 -80 8 -172.5t25 -196.5l17 -88l11 -55l13.5 -66t9.5 -43q14 -55 31.5 -108.5t37.5 -106.5h72z" />
<glyph unicode=")" horiz-adv-x="397" d="M336 709q0 90 -7 179t-22 181q-41 252 -125 475h-71q154 -422 153 -835q0 -78 -8 -168t-25 -193q-20 -129 -49.5 -246.5t-70.5 -228.5h71q154 396 154 836z" />
<glyph unicode="*" horiz-adv-x="591" d="M559 1141q-12 59 -102 92q-20 10 -56 18.5t-88 18.5l152 47q94 47 94 82q-4 47 -47 47q-102 -23 -209 -156q18 31 19 56l14 63l10 84q0 78 -53 78q-55 -10 -55 -78l12 -100l31 -103l-97 99q-57 57 -112 57q-45 -12 -45 -51q0 -49 96 -86l67 -25l80 -14 q-244 -61 -243 -127q0 -49 43 -49q66 12 114 61l97 92l-39 -135q-6 -16 -6 -65q0 -78 57 -76q49 2 49 80l-10 90l-29 106l100 -96q55 -53 109 -53q47 0 47 43z" />
<glyph unicode="+" horiz-adv-x="774" d="M647 500v84h-209v209h-94v-209h-209v-84h209v-209h94v209h209z" />
<glyph unicode="," horiz-adv-x="366" d="M317 111l-71 30l-152 -334l27 -18z" />
<glyph unicode="-" horiz-adv-x="555" d="M469 500v84h-432v-84h432z" />
<glyph unicode="." horiz-adv-x="231" d="M172 55q-16 68 -68 68q-68 -12 -67 -68q2 -31 20 -49q25 -18 47 -18q68 -1 68 67z" />
<glyph unicode="/" horiz-adv-x="587" d="M557 1493h-80l-430 -1493h84z" />
<glyph unicode="0" horiz-adv-x="1138" d="M1110 743q0 289 -121 506q-147 260 -416 260q-268 0 -415 -260q-121 -213 -121 -506q0 -291 121 -503q147 -260 415 -260q270 0 418 258q119 210 119 505zM1022 743q0 -281 -113 -467q-125 -211 -336 -210q-227 0 -350 237q-96 188 -96 440q0 276 113 469 q127 213 333 213q231 0 353 -237q96 -189 96 -445z" />
<glyph unicode="1" horiz-adv-x="1116" d="M688 0v1462h-276l-56 -84h248v-1378h84z" />
<glyph unicode="2" horiz-adv-x="1116" d="M1012 1085q0 174 -125 281q-125 109 -299 109q-203 0 -326 -136q-92 -104 -106 -211h92q23 94 80 158q94 106 260 107q135 0 237 -88q102 -90 103 -220q0 -133 -86 -256l-717 -829h885v84h-701l420 475l94 110l56 66q133 172 133 350z" />
<glyph unicode="3" horiz-adv-x="1116" d="M971 395q0 307 -287 393q274 61 274 334q0 170 -112 271q-113 102 -281 102q-162 0 -268 -92q-106 -90 -125 -250h96q51 258 297 258q129 0 211 -82q82 -80 82 -207q0 -133 -76 -202q-78 -72 -207 -72h-86v-121h86q94 0 185 -72q119 -94 119 -260q0 -133 -97 -229 q-96 -92 -231 -92q-104 0 -193 67q-90 68 -116 168h-90q35 -152 139 -235q109 -84 260 -84q182 0 301 112q119 111 119 293z" />
<glyph unicode="4" horiz-adv-x="1116" d="M1102 279v81h-170v1123l-838 -1204h752v-279h86v279h170zM846 360h-602l602 863v-863z" />
<glyph unicode="5" horiz-adv-x="1116" d="M1053 522q0 233 -164 373q-160 135 -357 123l-86 -6l-81 -11l88 377h495v84h-561l-145 -567q76 29 145 29q31 8 49 8h31l65 2q170 6 299 -105q137 -117 138 -307q0 -195 -123 -325q-123 -133 -314 -134q-160 0 -260 74q-80 59 -139 180l-78 -30q129 -307 477 -307 q231 0 377 153q144 151 144 389z" />
<glyph unicode="6" horiz-adv-x="1116" d="M1065 469q0 213 -145 358q-143 143 -359 144l-92 -8l-88 -25l-86 -43l311 567h-96l-367 -657q-18 -35 -34.5 -73t-26.5 -81q-10 -35 -14.5 -57.5t-6.5 -34.5t-2 -24v-21v-45q0 -221 140 -365q139 -139 362 -139q217 0 360.5 143.5t143.5 360.5zM983 469q0 -180 -121 -301 t-301 -121t-301 121q-119 119 -119 301q0 174 123 297t297 123q176 0 299 -125q123 -127 123 -295z" />
<glyph unicode="7" horiz-adv-x="1116" d="M1092 1462h-1029v-84h873l-887 -1345l70 -53z" />
<glyph unicode="8" horiz-adv-x="1116" d="M987 389q0 162 -100 268q-70 76 -180 117q109 35 167 127q61 94 62 209q0 168 -104.5 272.5t-272.5 104.5q-166 0 -270 -107q-104 -104 -105 -270q0 -109 60 -205q61 -100 164 -131q-129 -49 -201 -149q-72 -102 -72 -236q0 -184 121 -301q121 -115 307 -115 q184 0 305 117q119 117 119 299zM854 1110q0 -127 -84 -211q-41 -41 -93 -65.5t-118 -24.5q-63 0 -115.5 26.5t-93.5 67.5q-84 84 -84 207q0 127 84 211t209 84q127 0 211 -84t84 -211zM905 389q0 -145 -100 -239q-96 -94 -246 -95q-147 0 -246 99q-96 96 -96 235 q0 137 102 240q51 49 110.5 78.5t129.5 29.5q72 0 132.5 -29.5t111.5 -80.5q102 -99 102 -238z" />
<glyph unicode="9" horiz-adv-x="1116" d="M1067 969q0 217 -143 360q-141 143 -359 144q-217 0 -360.5 -143.5t-143.5 -360.5t144 -361q143 -141 360 -141l92 8l88 25l86 43l-290 -527l77 -36l365 653q20 37 35.5 74.5t25.5 78.5q12 47 17.5 93.5t5.5 89.5zM985 969q0 -178 -121 -299t-299 -121q-182 0 -301 123 q-121 125 -121 297q0 180 121 301t301 121t301 -121q119 -119 119 -301z" />
<glyph unicode=":" horiz-adv-x="333" d="M240 659q-16 68 -68 68q-68 -12 -68 -68q2 -31 21 -49q25 -18 47 -18q68 -1 68 67zM240 55q-16 68 -68 68q-68 -12 -68 -68q2 -31 21 -49q25 -18 47 -18q68 -1 68 67z" />
<glyph unicode=";" horiz-adv-x="417" d="M279 659q-16 68 -68 68q-68 -12 -68 -68q2 -31 21 -49q25 -18 47 -18q68 -1 68 67zM307 111l-71 30l-152 -334l27 -18z" />
<glyph unicode="&#x3c;" horiz-adv-x="647" d="M580 225v92l-365 222l365 221v92l-514 -313z" />
<glyph unicode="=" horiz-adv-x="606" d="M539 625v84h-463v-84h463zM539 375v82h-463v-82h463z" />
<glyph unicode="&#x3e;" horiz-adv-x="647" d="M608 539l-514 313v-92l363 -221l-363 -222v-92z" />
<glyph unicode="?" horiz-adv-x="960" d="M885 1171q0 154 -117 238q-104 74 -264 74q-297 0 -410 -273l78 -34q59 102 115 147q94 78 217 78q119 0 203 -53q94 -61 94 -177q0 -88 -72 -172q-16 -20 -55 -51l-99 -76l-174 -129q-143 -106 -143 -239q0 -92 65.5 -145.5t145.5 -47.5l59 4l47 13q49 23 72 45l-49 67 q-53 -43 -129 -43q-51 0 -86 29t-35 78q0 106 103 180l172 125l116 86q43 33 54 47q92 104 92 229zM530 66q-12 72 -71 71q-72 -12 -72 -71q12 -72 72 -72q71 0 71 72z" />
<glyph unicode="@" horiz-adv-x="1220" d="M1106 215q49 86 49 213q0 217 -164 363q-158 139 -379 139q-227 0 -384.5 -151.5t-157.5 -375.5q0 -219 135 -366q145 -164 405 -164q127 0 226 39q100 37 147 90l-39 39q-49 -57 -156 -90q-92 -25 -174 -25q-217 0 -354 131q-137 129 -137 346q0 201 143 336 q139 137 346 138q203 0 342 -125q147 -129 148 -324q0 -106 -41 -174q-51 -90 -127 -90q-41 0 -66 31q-31 43 -24 110l26 334h-51l-8 -111q-55 123 -211 123q-121 0 -203 -80q-80 -80 -80 -200q0 -121 62 -191q63 -72 180 -71q166 0 232 116q6 -39 34 -73q37 -43 101 -43 q119 0 180 106zM735 543q49 -55 49 -142q0 -104 -61 -172q-57 -66 -164 -65q-186 0 -186 207q0 94 65 159q68 68 162 68q86 0 135 -55z" />
<glyph unicode="A" horiz-adv-x="1296" d="M1233 0l-586 1509l-584 -1509h82l170 438h666l168 -438h84zM946 522h-598l299 774z" />
<glyph unicode="B" horiz-adv-x="1144" d="M1071 424q0 158 -92 266q-94 109 -248 139q158 90 158 283q0 168 -107 262q-100 88 -270 88h-356v-1462h456q193 0 326 119q133 117 133 305zM805 1112q0 -119 -78 -192.5t-197 -73.5h-292v532h280q121 0 205 -73q82 -70 82 -193zM989 424q0 -152 -110 -246 q-109 -94 -265 -94h-376v678h376q158 0 263 -90q112 -94 112 -248z" />
<glyph unicode="C" horiz-adv-x="1437" d="M1368 158v96q-119 -86 -197 -125q-135 -66 -317 -66q-293 0 -481 189q-186 186 -187 479q0 293 188.5 481.5t479.5 188.5q170 0 326 -64q102 -43 188 -114v104q-84 66 -174 100q-152 55 -340 56q-332 0 -543 -211q-209 -209 -209 -541t211 -543q209 -209 541 -208 q29 0 55.5 1t48.5 3q197 18 312 102z" />
<glyph unicode="D" horiz-adv-x="1409" d="M1296 733q0 301 -174 508q-184 221 -479 221h-487v-1462h487q297 0 481 221q172 209 172 512zM1212 733q0 -301 -178 -481q-166 -168 -391 -168h-405v1296h405q260 0 420 -196q149 -183 149 -451z" />
<glyph unicode="E" horiz-adv-x="968" d="M848 0v84h-619v672h619v90h-619v532h619v84h-703v-1462h703z" />
<glyph unicode="F" horiz-adv-x="886" d="M791 762v84h-553v532h553v84h-635v-1462h82v762h553z" />
<glyph unicode="G" d="M1608 707h-576v-84h484q-20 -197 -164 -353q-188 -207 -498 -207q-289 0 -481 189q-188 188 -189 479q0 289 190.5 479.5t479.5 190.5q354 0 551 -271l68 52q-225 301 -619 301q-328 0 -541 -213q-211 -211 -211 -539q0 -332 211 -543q209 -209 541 -208q348 0 559 223 q195 205 195 504z" />
<glyph unicode="H" horiz-adv-x="1259" d="M1126 0v1462h-84v-616h-804v616h-82v-1462h82v762h804v-762h84z" />
<glyph unicode="I" horiz-adv-x="393" d="M240 0v1462h-82v-1462h82z" />
<glyph unicode="J" horiz-adv-x="645" d="M522 291v1171h-84v-1167q0 -227 -153 -227q-100 0 -152 94l-72 -45q72 -133 226 -133q235 0 235 307z" />
<glyph unicode="K" horiz-adv-x="1073" d="M1053 0l-762 764l700 698h-119l-653 -649v649h-84v-1462h84v694l12 13l705 -707h117z" />
<glyph unicode="L" horiz-adv-x="729" d="M649 0v84h-411v1378h-82v-1462h493z" />
<glyph unicode="M" horiz-adv-x="1847" d="M1804 0l-381 1507l-497 -1306l-498 1304l-381 -1505h84l313 1231l482 -1268l481 1266l311 -1229h86z" />
<glyph unicode="N" horiz-adv-x="1464" d="M1333 -25v1487h-84v-1269l-1091 1280v-1473h82v1241z" />
<glyph unicode="O" d="M1608 731q0 332 -211 543q-213 209 -543 209q-332 0 -543 -211q-209 -209 -209 -541t211 -543q209 -209 541 -208q332 0 543 210q211 209 211 541zM1524 731q0 -297 -187 -483q-188 -184 -483 -185q-293 0 -481 189q-186 186 -187 479q0 293 188.5 481.5t479.5 188.5 q295 0 483 -189q187 -186 187 -481z" />
<glyph unicode="P" horiz-adv-x="1003" d="M909 1100q0 166 -114.5 264t-282.5 98h-356v-1462h82v731h274q168 0 283 103q114 98 114 266zM825 1100q0 -133 -90 -211q-90 -74 -225 -74h-272v563h272q137 0 221 -69q94 -76 94 -209z" />
<glyph unicode="Q" d="M1624 731q0 332 -211 543q-213 209 -543 209q-332 0 -542 -211q-209 -209 -209 -541t211 -543q209 -209 540 -208q332 0 543 210q211 209 211 541zM1540 731q0 -297 -186 -483q-188 -184 -484 -185q-293 0 -481 189q-186 186 -186 479t188 481q184 188 479 189 q295 0 484 -189q186 -186 186 -481zM1305 -197v84h-433v-84h433z" />
<glyph unicode="R" horiz-adv-x="991" d="M958 0l-469 731q88 0 162 21.5t128.5 66.5t84 115t29.5 166q0 88 -32 155.5t-85 113.5t-127 69.5t-155 23.5h-338v-1462h82v731h157l465 -731h98zM807 1102q0 -139 -81 -213t-212 -74h-276v563h254q66 0 123 -17.5t100 -51t67.5 -85.5t24.5 -122z" />
<glyph unicode="S" horiz-adv-x="1019" d="M938 379q0 174 -119 291q-43 43 -112.5 85t-165.5 85q-154 70 -205 110q-90 78 -90 183q0 117 86 188q80 68 200 68q115 0 187 -46q57 -33 98 -100l80 35q-106 193 -365 192q-156 0 -262 -94q-109 -92 -108 -243q0 -152 106 -244q63 -57 238 -135q92 -41 151.5 -74 t87.5 -59q109 -96 109 -242q0 -154 -92 -234q-90 -78 -248 -77q-276 0 -348 262l-84 -29q96 -317 432 -317q109 0 188 28q236 88 236 367z" />
<glyph unicode="T" horiz-adv-x="903" d="M823 1378v84h-731v-84h324v-1378h84v1378h323z" />
<glyph unicode="U" horiz-adv-x="1136" d="M1004 365v1097h-84v-1097q0 -137 -105 -220q-96 -76 -237 -75q-143 0 -238 73q-102 80 -102 222v1097h-82v-1097q0 -178 125 -283q119 -96 297 -96q184 0 296 94q130 107 130 285z" />
<glyph unicode="V" horiz-adv-x="1077" d="M1018 1462h-88l-385 -1208l-383 1208h-86l469 -1487z" />
<glyph unicode="W" horiz-adv-x="1794" d="M1743 1462h-86l-383 -1196l-369 1223l-370 -1223l-383 1196h-82l469 -1482l366 1226l365 -1226z" />
<glyph unicode="X" horiz-adv-x="1085" d="M1032 0l-430 750l406 712h-97l-362 -633l-361 633h-96l406 -706l-430 -756h94l385 678l389 -678h96z" />
<glyph unicode="Y" horiz-adv-x="1046" d="M985 1462h-96l-365 -633l-360 633h-96l415 -731v-731h84v731z" />
<glyph unicode="Z" horiz-adv-x="1134" d="M1069 1462h-940v-86h789l-838 -1376h985v84h-836z" />
<glyph unicode="[" horiz-adv-x="438" d="M348 -94v69h-143v1500h137v71h-221v-1640h227z" />
<glyph unicode="\" horiz-adv-x="575" d="M547 0l-418 1462h-82l420 -1462h80z" />
<glyph unicode="]" horiz-adv-x="438" d="M352 -94v1640h-221v-71h139v-1500h-145v-69h227z" />
<glyph unicode="^" horiz-adv-x="720" d="M647 772l-248 576h-67l-248 -576h53l230 422l225 -422h55z" />
<glyph unicode="_" horiz-adv-x="731" d="M754 -434v74h-754v-74h754z" />
<glyph unicode="`" horiz-adv-x="679" d="M506 1008l-275 274l-45 -49l269 -272z" />
<glyph unicode="a" horiz-adv-x="1044" d="M930 0v846h-84v-148q-135 160 -338 160q-184 0 -311 -127q-125 -125 -125 -309t127 -311q125 -125 309 -125q205 0 338 159v-145h84zM862 422q0 -147 -104 -252q-102 -102 -250 -102q-145 0 -249.5 104t-104.5 250q0 147 104 252q102 102 250 102q145 0 249.5 -104.5 t104.5 -249.5z" />
<glyph unicode="b" horiz-adv-x="1058" d="M979 422q0 184 -127 311q-125 125 -309 125q-213 0 -346 -170v828h-84v-1516h84v156q135 -170 346 -170q184 0 311 127q125 125 125 309zM897 422q0 -147 -104 -252q-102 -102 -250 -102q-145 0 -250 104t-105 250q0 147 105 252q102 102 250 102q145 0 249.5 -104.5 t104.5 -249.5z" />
<glyph unicode="c" horiz-adv-x="897" d="M793 59v105q-111 -98 -258 -98q-156 0 -256.5 100t-100.5 256q0 158 101 258q98 98 256 98q70 0 147 -26l57 -31l54 -35v100q-96 74 -258 74q-188 0 -313.5 -125t-125.5 -313t125 -313t314 -125q143 -1 258 75z" />
<glyph unicode="d" horiz-adv-x="1067" d="M952 0v1516h-84v-824q-141 166 -344 166q-184 0 -311 -127q-125 -125 -125 -309t127 -311q125 -125 309 -125q209 0 344 166v-152h84zM879 422q0 -147 -105 -252q-102 -102 -250 -102q-145 0 -249.5 104t-104.5 250q0 147 104 252q102 102 250 102q145 0 250 -104.5 t105 -249.5z" />
<glyph unicode="e" horiz-adv-x="1003" d="M944 440q0 186 -125 303q-123 117 -311 117q-190 0 -315 -125q-123 -123 -123 -313q0 -188 125 -313q123 -125 313 -125q80 0 143 20q166 53 246 205l-76 35q-70 -113 -157 -150q-70 -29 -156 -28q-168 0 -264 102q-92 100 -92 272h792zM850 520h-686q82 258 344 258 q125 0 221 -69q101 -72 121 -189z" />
<glyph unicode="f" horiz-adv-x="555" d="M512 1419v84q-31 14 -55 15q-12 4 -58 4q-197 0 -196 -195v-481h-115v-84h115v-762h84v762h200v84h-200v457q0 135 114 135l56 -6z" />
<glyph unicode="g" horiz-adv-x="1044" d="M930 18v828h-84v-148q-135 160 -338 160q-184 0 -311 -127q-125 -125 -125 -309t127 -311q125 -125 309 -125q205 0 338 159v-125q0 -158 -88 -245q-86 -88 -244 -88q-117 0 -201 39q-106 49 -129 149h-84q68 -272 414 -272q186 0 301 114.5t115 300.5zM862 422 q0 -147 -104 -252q-102 -102 -250 -102q-145 0 -249.5 104t-104.5 250q0 147 104 252q102 102 250 102q145 0 249.5 -104.5t104.5 -249.5z" />
<glyph unicode="h" horiz-adv-x="933" d="M821 -2v518q0 342 -334 342q-176 0 -251 -125v783h-84v-1516h84v551q0 102 75 164q74 61 176 61q250 0 250 -268v-510h84z" />
<glyph unicode="i" horiz-adv-x="376" d="M260 1065q-16 68 -67 68q-68 -12 -68 -68q2 -31 20 -49q25 -18 48 -19q67 0 67 68zM233 0v846h-83v-846h83z" />
<glyph unicode="j" horiz-adv-x="378" d="M260 1065q-16 68 -67 68q-68 -12 -68 -68q2 -31 20 -49q25 -18 48 -19q67 0 67 68zM236 -369v1215h-84v-1215h84z" />
<glyph unicode="k" horiz-adv-x="854" d="M821 0l-497 498l383 381h-119l-367 -365v1002h-84v-1516h84v393l47 47l443 -440h110z" />
<glyph unicode="l" horiz-adv-x="393" d="M240 0v1516h-82v-1516h82z" />
<glyph unicode="m" horiz-adv-x="1316" d="M1182 0v584q0 129 -78 202q-78 72 -205 72q-166 0 -240 -133q-78 133 -241 133q-137 0 -199 -96v84h-84v-846h84v584q0 88 57 139q57 53 142 53q82 0 141 -55q57 -51 57 -137v-584h84v584q0 193 199 192q96 0 147.5 -57t51.5 -135v-584h84z" />
<glyph unicode="n" horiz-adv-x="923" d="M788 0v514q0 162 -83.5 252t-241.5 90q-186 0 -244 -113v103h-84v-846h84v514q0 121 64 191q61 70 180 69q242 0 242 -268v-506h83z" />
<glyph unicode="o" horiz-adv-x="1019" d="M944 422q0 184 -127 311t-309 127q-184 0 -309 -129q-127 -127 -127 -309q0 -184 127 -311q125 -125 309 -125t311 127q125 125 125 309zM862 422q0 -147 -104 -252q-102 -102 -250 -102q-145 0 -249.5 104t-104.5 250q0 143 106 250q104 106 248 106q150 0 252 -104 q102 -102 102 -252z" />
<glyph unicode="p" horiz-adv-x="1050" d="M999 422q0 184 -127 311q-125 125 -309 125q-217 0 -348 -172v160h-84v-1243h84v555q137 -172 348 -172q184 0 311 127q125 125 125 309zM918 422q0 -147 -105 -252q-102 -102 -250 -102q-145 0 -249.5 104t-104.5 250q0 147 104 252q102 102 250 102q145 0 250 -104.5 t105 -249.5z" />
<glyph unicode="q" horiz-adv-x="1028" d="M926 -397v1243h-84v-154q-139 166 -344 166q-184 0 -312 -127q-125 -125 -125 -309t127 -311q125 -125 310 -125q209 0 344 166v-549h84zM852 422q0 -147 -104 -252q-102 -102 -250 -102q-145 0 -250 104t-105 250q0 147 105 252q102 102 250 102q145 0 249.5 -104.5 t104.5 -249.5z" />
<glyph unicode="r" horiz-adv-x="634" d="M580 791q-51 37 -92.5 51t-104.5 14q-51 0 -94 -39t-70 -86v115h-84v-846h84v557q0 33 13.5 72t36 70.5t53 53t65.5 21.5q41 0 78 -14.5t70 -38.5z" />
<glyph unicode="s" horiz-adv-x="677" d="M631 231q0 115 -88 183q-23 16 -68 37.5t-115 46.5q-80 27 -116 55q-45 37 -45 94q0 129 147 129q109 0 178 -69l62 53q-98 98 -240 98q-102 0 -166 -63q-66 -61 -65 -148q0 -100 65 -153q45 -37 148 -74q55 -20 93 -35.5t58 -28.5q68 -53 68 -125q0 -164 -193 -163 q-88 0 -139 38q-49 35 -84 99l-72 -43q98 -178 295 -178q115 0 197 69q80 67 80 178z" />
<glyph unicode="t" horiz-adv-x="512" d="M459 762v84h-197v371h-84v-371h-115v-84h115v-762h84v762h197z" />
<glyph unicode="u" horiz-adv-x="878" d="M756 317v529h-82v-529q0 -252 -236 -251q-121 0 -176 65q-53 66 -53 186v529h-84v-529q0 -158 82 -245.5t231 -87.5q152 0 236 90q82 87 82 243z" />
<glyph unicode="v" horiz-adv-x="890" d="M856 846h-94l-309 -674l-308 674h-90l400 -883z" />
<glyph unicode="w" horiz-adv-x="1400" d="M1354 846h-94l-283 -653l-270 679l-273 -682l-284 656h-91l379 -883l269 676l264 -676z" />
<glyph unicode="x" horiz-adv-x="739" d="M711 0l-287 428l281 418h-99l-233 -350l-236 350h-98l283 -420l-289 -426h100l240 354l239 -354h99z" />
<glyph unicode="y" horiz-adv-x="911" d="M866 846h-92l-311 -668l-316 668h-90l357 -768l-219 -475h94z" />
<glyph unicode="z" horiz-adv-x="935" d="M868 846h-739v-80h569l-604 -766h764v84h-590z" />
<glyph unicode="{" horiz-adv-x="395" d="M365 -104v75q-102 0 -142 33q-39 31 -39 131v408q0 47 -26 98q-25 53 -58 86q84 72 84 184v375q0 94 41 135q39 39 137 39v76q-139 0 -196 -57q-57 -55 -57 -193v-375q0 -111 -93 -184q47 -47 62 -76q31 -59 31 -108v-412q0 -137 59 -186q58 -49 197 -49z" />
<glyph unicode="|" horiz-adv-x="272" d="M182 -94v1640h-71v-1640h71z" />
<glyph unicode="}" horiz-adv-x="395" d="M379 727q-47 47 -62 72q-31 55 -30 112v375q0 131 -59.5 190.5t-194.5 59.5v-76q98 0 137 -39q41 -41 41 -135v-375q0 -61 22.5 -106t61.5 -78q-84 -90 -84 -184v-408q0 -100 -39 -133q-41 -31 -141 -31v-75q139 0 198 49q57 49 58 186v412q0 53 32 110q25 45 60 74z" />
<glyph unicode="~" horiz-adv-x="878" d="M823 735l-65 56q-72 -74 -158 -74l-37 4l-35 10l-69 33l-82 37q-37 12 -76 12q-135 0 -240 -104l58 -60l39 35l35 23q51 25 108 24q43 0 86 -22l51 -27l84 -39q25 -10 82 -10q123 0 219 102z" />
<glyph unicode="&#xa1;" horiz-adv-x="417" d="M285 1245q-6 35 -23 51q-23 23 -51 23q-74 -12 -74 -74q0 -74 74 -74q74 13 74 74zM254 -152v1160h-82v-1160h82z" />
<glyph unicode="&#xa2;" horiz-adv-x="866" d="M760 961v100q-45 41 -107 59q-55 23 -123 23v100h-86v-102q-168 -20 -268 -137q-98 -115 -98 -285q0 -156 92 -268q113 -141 274 -142v-121h86v119l66 6l61 15q61 25 99 49v94q-121 -84 -226 -84v668q55 0 123 -29l54 -31zM444 389q-127 20 -202 111q-74 88 -74 219 q0 129 76 223q78 92 200 111v-664z" />
<glyph unicode="&#xa3;" horiz-adv-x="970" d="M918 102l-56 54q-86 -86 -182 -86q-43 0 -80 12l-78 35q-29 18 -73 37l-35 14l-31 2q63 63 106 149q41 88 41 181h230v88h-234q-20 76 -69 149l-107 160q-80 119 -96 197l-6 65q0 231 268 232q117 0 184 -48q84 -55 84 -163h82q0 145 -104 223q-94 70 -246 70 q-154 0 -254 -78q-104 -84 -104 -236q0 -72 35 -158l81 -145l76 -104q76 -102 88 -164h-213v-88h219q0 -166 -168 -334q-49 0 -108 -35q-57 -33 -88 -76l53 -57q51 49 84 63q63 27 117 25l47 -4l47 -12q27 -6 57 -25q96 -57 195 -57q78 0 143 37q29 20 52 38.5t43 38.5z" />
<glyph unicode="&#xa5;" horiz-adv-x="1052" d="M985 1462h-96l-365 -635l-360 635h-96l409 -721h-201v-84h207v-92h-207v-84h207v-481h84v481h209v84h-209v92h209v84h-203z" />
<glyph unicode="&#xa6;" horiz-adv-x="272" d="M182 893v653h-71v-653h71zM182 0v670h-71v-670h71z" />
<glyph unicode="&#xa7;" horiz-adv-x="778" d="M709 713q0 276 -316 327q-188 31 -188 199q0 74 51 125q51 49 125 49q127 0 201 -135l61 41q-86 172 -262 172q-111 0 -188 -72q-74 -72 -74 -184q0 -152 145 -236q-88 -47 -123 -90q-66 -78 -65 -202q0 -119 84 -207q82 -84 202 -101q217 -27 218 -235q0 -86 -58 -135 q-55 -49 -141 -49q-90 0 -135 45q-47 47 -74 112l-76 -35q37 -96 108.5 -149t176.5 -53q125 0 209 71q82 70 82 193q0 188 -140 266q177 103 177 283zM616 707q0 -96 -63 -152q-63 -53 -160 -53q-92 0 -157.5 59.5t-65.5 155.5q0 94 57 153q57 61 150 62q239 0 239 -225z " />
<glyph unicode="&#xa8;" horiz-adv-x="878" d="M657 1065q-16 68 -67 68q-68 -12 -68 -68q2 -31 21 -49q25 -18 47 -19q67 0 67 68zM377 1065q-16 68 -68 68q-68 -12 -67 -68q2 -31 20 -49q25 -18 47 -19q68 0 68 68z" />
<glyph unicode="&#xa9;" horiz-adv-x="1204" d="M1147 797q0 225 -158 383q-160 156 -381 155q-225 0 -383 -157q-156 -156 -155 -381q0 -225 157 -383q156 -156 381 -156t383 158q156 160 156 381zM1108 799q0 -209 -145 -355q-143 -143 -353 -143q-209 0 -354 145q-143 143 -143 353q0 209 145 354q143 143 352 143 t355 -145q143 -143 143 -352zM803 631v49q-72 -80 -195 -80q-111 0 -168 62q-57 59 -57 145q0 94 66 149q63 55 159 56l60 -6q27 -2 57 -19l41 -20l37 -25v49l-41 25l-35 16q-41 20 -119 21q-115 0 -190 -68q-76 -63 -76 -178q0 -109 78 -180q76 -68 188 -68q123 0 195 72z " />
<glyph unicode="&#xaa;" horiz-adv-x="763" d="M633 868v508h-51v-88q-78 96 -203 96q-111 0 -186 -75q-74 -78 -74 -187q0 -111 76 -186q74 -76 184 -76q129 0 203 96v-88h51zM684 688v60h-582v-60h582zM592 1122q0 -86 -63.5 -149.5t-149.5 -63.5t-150 64q-61 63 -61 149t63 150q61 63 148 63q86 0 149.5 -63.5 t63.5 -149.5z" />
<glyph unicode="&#xab;" horiz-adv-x="899" d="M803 866l-43 43l-385 -387l377 -379l43 43l-338 336zM506 866l-41 43l-387 -387l377 -379l43 43l-336 336z" />
<glyph unicode="&#xac;" horiz-adv-x="802" d="M420 858v660h-123l-25 -39h111v-621h37zM651 725v53h-520v-53h520zM590 168q0 127 -127 174q45 8 76 59q27 41 26 93q0 74 -47 121t-121 47q-76 0 -123 -47.5t-47 -120.5q0 -47 29 -95q27 -43 72 -57q-123 -47 -123 -174q0 -82 51 -133q53 -53 141 -53q86 0 140 51 q53 53 53 135zM528 494q0 -55 -39 -95q-37 -37 -92 -37t-94 39q-39 37 -39 93q0 55 39 94q39 37 94 37t95 -39q36 -37 36 -92zM553 168q0 -63 -45 -107q-47 -43 -111 -43q-66 0 -110 43q-45 39 -45 107q0 61 47 108q45 45 108 46q66 0 111 -45.5t45 -108.5z" />
<glyph unicode="&#xad;" horiz-adv-x="555" d="M469 500v84h-432v-84h432z" />
<glyph unicode="&#xae;" horiz-adv-x="817" d="M731 1104q0 135 -94 229t-229 94t-229.5 -94t-94.5 -229t94 -229.5t230 -94.5q135 0 229 94.5t94 229.5zM700 1104q0 -117 -88 -205t-204 -88q-117 0 -205 88t-88 205t88 205t205 88t204.5 -88t87.5 -205zM543 926l-121 172h16q104 0 105 100q0 45 -31 74q-27 27 -74 26 h-143v-372h29v172h63l119 -172h37zM514 1198q0 -72 -74 -72h-116v144h116q74 0 74 -72z" />
<glyph unicode="&#xaf;" horiz-adv-x="804" d="M700 971v73h-583v-73h583z" />
<glyph unicode="&#xb0;" horiz-adv-x="434" d="M387 1260q0 68 -51 119t-119 51t-119 -51.5t-51 -118.5q0 -68 51.5 -119t118.5 -51q68 0 119 51t51 119zM344 1262q0 -49 -39 -88t-88 -39t-88 38.5t-39 88.5q0 49 39 88t88 39t88 -39t39 -88z" />
<glyph unicode="&#xb1;" horiz-adv-x="794" d="M649 662v83h-209v209h-94v-209h-209v-83h209v-209h94v209h209zM664 291v84h-527v-84h527z" />
<glyph unicode="&#xb2;" horiz-adv-x="802" d="M608 1343q0 78 -57 127q-59 49 -135 50q-70 0 -127 -45q-55 -41 -66 -111h41q39 119 152 119q59 0 106 -41t47 -99q0 -55 -39 -114l-321 -373h397v37h-315l190 215q72 82 88 106q39 66 39 129z" />
<glyph unicode="&#xb3;" horiz-adv-x="802" d="M596 1038q0 139 -129 176q123 33 123 152q0 78 -51.5 123t-124.5 45q-72 0 -121 -43q-49 -39 -55 -113h43q18 117 133 117q57 0 94 -37q37 -35 37 -92l-8 -51l-25 -39q-35 -35 -94 -35h-39v-53h39l43 -8q18 -6 41 -25q53 -41 53 -117q0 -61 -43 -104q-45 -41 -104 -41 q-51 0 -91 35q-37 35 -49 71h-41q39 -143 181 -143q84 0 135 51q53 49 53 131z" />
<glyph unicode="&#xb4;" horiz-adv-x="835" d="M641 1233l-49 49l-273 -272l50 -49z" />
<glyph unicode="&#xb5;" horiz-adv-x="1607" d="M1012 1085q0 174 -125 281q-125 109 -299 109q-203 0 -326 -136q-92 -104 -106 -211h92q23 94 80 158q94 106 260 107q135 0 237 -88q102 -90 103 -220q0 -133 -86 -256l-717 -829h885v84h-701l420 475l94 110l56 66q133 172 133 350zM694 911q0 68 -51 119t-119 51 t-119 -51t-51 -119t51.5 -119t118.5 -51q68 0 119 51t51 119zM651 913q0 -49 -39 -88t-88 -39t-88 39t-39 88t39 88t88 39t88 -39t39 -88zM1432 911q0 68 -51.5 119t-118.5 51q-68 0 -119 -51t-51 -119t51 -119t119 -51t119 51t51 119zM1389 913q0 -49 -39 -88t-88 -39 t-88 39t-39 88t38.5 88t88.5 39q49 0 88 -39t39 -88zM500 879q0 -18 13 -31.5t32 -13.5q18 0 31.5 13t13.5 32q0 18 -13.5 31.5t-31.5 13.5t-31.5 -13.5t-13.5 -31.5zM1239 872q0 -18 13.5 -31.5t31.5 -13.5t31.5 13.5t13.5 31.5t-13 32t-32 14q-18 0 -31.5 -14t-13.5 -32z M1200 -264l-37 45q-76 -76 -174 -76q-106 0 -186 80l-43 -49q84 -90 221 -90q141 0 219 90z" />
<glyph unicode="&#xb6;" horiz-adv-x="1034" d="M913 -125v1587h-84v-1587h84zM719 -125v1587h-221q-170 0 -281 -98q-117 -104 -117 -268q0 -168 113 -266.5t285 -98.5h137v-856h84z" />
<glyph unicode="&#xb7;" horiz-adv-x="565" d="M276 664q-16 68 -67 67q-68 -12 -68 -67q2 -31 21 -50q25 -18 47 -18q67 0 67 68z" />
<glyph unicode="&#x2219;" horiz-adv-x="565" d="M276 664q-16 68 -67 67q-68 -12 -68 -67q2 -31 21 -50q25 -18 47 -18q67 0 67 68z" />
<glyph unicode="&#xb8;" horiz-adv-x="532" d="M399 -193q0 84 -77 109l28 84h-92l-33 -100q74 -29 74 -72q0 -49 -57 -49l-49 14q-14 8 -25.5 15.5t-20.5 15.5v-82q57 -51 134 -51q53 0 85.5 32.5t32.5 83.5z" />
<glyph unicode="&#xb9;" horiz-adv-x="802" d="M449 858v660h-123l-25 -39h111v-621h37z" />
<glyph unicode="&#xba;" horiz-adv-x="763" d="M645 1130q0 111 -75.5 187t-186.5 76t-186.5 -76t-75.5 -187t75.5 -186.5t186.5 -75.5t186.5 75.5t75.5 186.5zM672 688v60h-578v-60h578zM596 1130q0 -86 -63.5 -149t-149.5 -63t-149.5 63t-63.5 149t63.5 149.5t149.5 63.5t149.5 -63.5t63.5 -149.5z" />
<glyph unicode="&#xbb;" horiz-adv-x="899" d="M846 522l-387 387l-41 -43l344 -344l-336 -336l43 -43zM539 522l-387 387l-41 -43l344 -344l-336 -336l43 -43z" />
<glyph unicode="&#xbc;" horiz-adv-x="802" d="M449 858v660h-123l-25 -39h111v-621h37zM682 725v53h-520v-53h520zM590 123v37h-58v506l-376 -543h338v-125h38v125h58zM494 160h-271l271 383v-383z" />
<glyph unicode="&#xbd;" horiz-adv-x="802" d="M461 858v660h-123l-25 -39h111v-621h37zM686 725v53h-520v-53h520zM616 487q0 78 -57 127q-59 49 -135 50q-70 0 -127 -46q-55 -41 -66 -110h41q39 119 152 119q59 0 106.5 -41t47.5 -99q0 -55 -39 -114l-322 -373h397v37h-315l190 215q72 82 89 106q38 66 38 129z" />
<glyph unicode="&#xbe;" horiz-adv-x="802" d="M596 1038q0 139 -129 176q123 33 123 152q0 78 -51.5 123t-124.5 45q-72 0 -121 -43q-49 -39 -55 -113h43q18 117 133 117q57 0 94 -37q37 -35 37 -92l-8 -51l-25 -39q-35 -35 -94 -35h-39v-53h39l43 -8q18 -6 41 -25q53 -41 53 -117q0 -61 -43 -104q-45 -41 -104 -41 q-51 0 -91 35q-37 35 -49 71h-41q39 -143 181 -143q84 0 135 51q53 49 53 131zM670 725v53h-523v-53h523zM598 123v37h-57v506l-377 -543h338v-125h39v125h57zM502 160h-271l271 383v-383z" />
<glyph unicode="&#xbf;" horiz-adv-x="960" d="M573 1253q-12 72 -71 72q-72 -12 -72 -72q12 -72 72 -71q71 12 71 71zM866 109l-78 34q-29 -49 -57.5 -86t-56.5 -61q-94 -78 -217 -78q-119 0 -201 53q-96 61 -96 176q0 88 71 172q16 20 56 52l98 75l174 129q143 106 143 240q0 88 -61 141q-61 51 -149 52 q-117 0 -179 -62l49 -67q27 27 56 32q25 10 74 11q51 0 85.5 -29t34.5 -78q0 -106 -102 -180l-172 -125l-117 -86q-43 -33 -53 -47q-92 -104 -92 -230q0 -160 114 -239q98 -72 267 -72q296 1 409 273z" />
<glyph unicode="&#xc0;" horiz-adv-x="1296" d="M702 1581l-247 248l-41 -45l241 -244zM1233 0l-586 1509l-584 -1509h82l170 438h666l168 -438h84zM946 522h-598l299 774z" />
<glyph unicode="&#xc1;" horiz-adv-x="1296" d="M872 1772l-41 40l-227 -229l39 -39zM1233 0l-586 1509l-584 -1509h82l170 438h666l168 -438h84zM946 522h-598l299 774z" />
<glyph unicode="&#xc2;" horiz-adv-x="1296" d="M899 1550l-248 248l-248 -248l43 -43l205 203l205 -203zM1233 0l-586 1509l-584 -1509h82l170 438h666l168 -438h84zM946 522h-598l299 774z" />
<glyph unicode="&#xc3;" horiz-adv-x="1286" d="M975 1638l-60 45q-43 -43 -59 -49l-25 -8h-47l-71 8l-60 25q-10 6 -18 10l-17 8q-55 20 -106 21q-137 0 -195 -105l58 -45q51 68 127 68q45 0 73 -12l60 -25q61 -37 158 -37q63 0 110 29l33 26zM1233 0l-586 1509l-584 -1509h82l170 438h666l168 -438h84zM946 522h-598 l299 774z" />
<glyph unicode="&#xc4;" horiz-adv-x="1286" d="M848 1630q-16 68 -68 68q-68 -12 -67 -68q2 -31 20 -49q25 -18 47 -18q68 -1 68 67zM567 1630q-16 68 -67 68q-68 -12 -68 -68q2 -31 21 -49q25 -18 47 -18q67 -1 67 67zM1233 0l-586 1509l-584 -1509h82l170 438h666l168 -438h84zM946 522h-598l299 774z" />
<glyph unicode="&#xc5;" horiz-adv-x="1296" d="M786 1665q0 57 -40.5 98t-98.5 41q-57 0 -98 -41t-41 -98t41 -98t98 -41t98 41t41 98zM1233 0l-586 1509l-584 -1509h82l170 438h666l168 -438h84zM750 1667q0 -39 -33 -72q-31 -33 -70 -32q-47 0 -74 30q-29 29 -28 74q0 43 30 74q29 29 72 28q41 0 72 -30.5t31 -71.5z M946 522h-598l299 774z" />
<glyph unicode="&#xc6;" horiz-adv-x="1515" d="M1405 0v84h-621v678h621v84h-619v532h619v84h-694l-652 -1462h82l299 670h260v-670h705zM700 752h-221l221 497v-497z" />
<glyph unicode="&#xc7;" horiz-adv-x="1437" d="M1368 158v96q-119 -86 -197 -125q-135 -66 -317 -66q-293 0 -481 189q-186 186 -187 479q0 293 188.5 481.5t479.5 188.5q170 0 326 -64q102 -43 188 -114v104q-84 66 -174 100q-152 55 -340 56q-332 0 -543 -211q-209 -209 -209 -541q0 -322 197 -526q219 -225 498 -225 l-33 -76q27 -6 47 -31t20 -47q0 -49 -57 -49q-49 0 -82 39l-33 -68q57 -57 140 -57q125 0 125 123q0 63 -64 108l23 58q182 0 317 63l68 43z" />
<glyph unicode="&#xc8;" horiz-adv-x="968" d="M543 1581l-246 248l-43 -45l244 -244zM848 0v84h-619v672h619v90h-619v532h619v84h-703v-1462h703z" />
<glyph unicode="&#xc9;" horiz-adv-x="968" d="M725 1772l-43 45l-229 -238l43 -35zM848 0v84h-619v672h619v90h-619v532h619v84h-703v-1462h703z" />
<glyph unicode="&#xca;" horiz-adv-x="968" d="M752 1591l-246 248l-248 -248l43 -43l205 203l205 -203zM848 0v84h-619v672h619v90h-619v532h619v84h-703v-1462h703z" />
<glyph unicode="&#xcb;" horiz-adv-x="968" d="M709 1630q-16 68 -68 68q-68 -12 -68 -68q2 -31 21 -49q25 -18 47 -18q68 -1 68 67zM428 1630q-16 68 -68 68q-68 -12 -67 -68q2 -31 20 -49q25 -18 47 -18q68 -1 68 67zM848 0v84h-619v672h619v90h-619v532h619v84h-703v-1462h703z" />
<glyph unicode="&#xcc;" horiz-adv-x="393" d="M264 1581l-246 248l-43 -45l244 -244zM240 0v1462h-82v-1462h82z" />
<glyph unicode="&#xcd;" horiz-adv-x="393" d="M412 1772l-39 40l-230 -229l41 -39zM240 0v1462h-82v-1462h82z" />
<glyph unicode="&#xce;" horiz-adv-x="393" d="M442 1550l-245 248l-250 -248l45 -43l205 203l204 -203zM240 0v1462h-82v-1462h82z" />
<glyph unicode="&#xcf;" horiz-adv-x="393" d="M403 1630q-16 68 -67 68q-68 -12 -68 -68q2 -31 21 -49q25 -18 47 -18q67 -1 67 67zM123 1630q-16 68 -68 68q-68 -12 -67 -68q2 -31 20 -49q25 -18 47 -18q68 -1 68 67zM240 0v1462h-82v-1462h82z" />
<glyph unicode="&#xd0;" horiz-adv-x="1409" d="M1296 733q0 301 -174 508q-184 221 -479 221h-487v-684h-90v-84h90v-694h487q297 0 481 221q172 209 172 512zM1212 733q0 -301 -178 -481q-166 -168 -391 -168h-405v610h260v84h-260v602h405q260 0 420 -196q149 -183 149 -451z" />
<glyph unicode="&#xd1;" horiz-adv-x="1464" d="M1067 1638l-59 45q-43 -43 -60 -49l-24 -8h-47l-72 8l-60 25q-10 6 -18 10l-16 8q-55 20 -107 21q-137 0 -194 -105l57 -45q51 68 127 68q45 0 74 -12l59 -25q61 -37 158 -37q63 0 110 29l33 26zM1333 -25v1487h-84v-1269l-1091 1280v-1473h82v1241z" />
<glyph unicode="&#xd2;" d="M885 1581l-248 248l-41 -45l242 -244zM1608 731q0 332 -211 543q-213 209 -543 209q-332 0 -543 -211q-209 -209 -209 -541t211 -543q209 -209 541 -208q332 0 543 210q211 209 211 541zM1524 731q0 -297 -187 -483q-188 -184 -483 -185q-293 0 -481 189 q-186 186 -187 479q0 293 188.5 481.5t479.5 188.5q295 0 483 -189q187 -186 187 -481z" />
<glyph unicode="&#xd3;" d="M1047 1772l-39 40l-228 -229l39 -39zM1608 731q0 332 -211 543q-213 209 -543 209q-332 0 -543 -211q-209 -209 -209 -541t211 -543q209 -209 541 -208q332 0 543 210q211 209 211 541zM1524 731q0 -297 -187 -483q-188 -184 -483 -185q-293 0 -481 189 q-186 186 -187 479q0 293 188.5 481.5t479.5 188.5q295 0 483 -189q187 -186 187 -481z" />
<glyph unicode="&#xd4;" d="M1096 1602l-248 247l-248 -247l43 -43l205 202l205 -202zM1608 731q0 332 -211 543q-213 209 -543 209q-332 0 -543 -211q-209 -209 -209 -541t211 -543q209 -209 541 -208q332 0 543 210q211 209 211 541zM1524 731q0 -297 -187 -483q-188 -184 -483 -185 q-293 0 -481 189q-186 186 -187 479q0 293 188.5 481.5t479.5 188.5q295 0 483 -189q187 -186 187 -481z" />
<glyph unicode="&#xd5;" d="M1159 1663l-59 45q-43 -43 -60 -49l-24 -8h-47l-72 8l-59 24l-19 11l-16 8q-55 20 -107 20q-137 0 -194 -104l57 -45q51 68 127 67q45 0 74 -12l59 -24q61 -37 158 -37q63 0 110 28l33 27zM1608 731q0 332 -211 543q-213 209 -543 209q-332 0 -543 -211 q-209 -209 -209 -541t211 -543q209 -209 541 -208q332 0 543 210q211 209 211 541zM1524 731q0 -297 -187 -483q-188 -184 -483 -185q-293 0 -481 189q-186 186 -187 479q0 293 188.5 481.5t479.5 188.5q295 0 483 -189q187 -186 187 -481z" />
<glyph unicode="&#xd6;" d="M1055 1630q-16 68 -68 68q-68 -12 -67 -68q2 -31 20 -49q25 -18 47 -18q68 -1 68 67zM774 1630q-16 68 -67 68q-68 -12 -68 -68q2 -31 20 -49q25 -18 48 -18q67 -1 67 67zM1608 731q0 332 -211 543q-213 209 -543 209q-332 0 -543 -211q-209 -209 -209 -541t211 -543 q209 -209 541 -208q332 0 543 210q211 209 211 541zM1524 731q0 -297 -187 -483q-188 -184 -483 -185q-293 0 -481 189q-186 186 -187 479q0 293 188.5 481.5t479.5 188.5q295 0 483 -189q187 -186 187 -481z" />
<glyph unicode="&#xd7;" horiz-adv-x="1929" d="M1329 711l-11 -19q-5 -8 -11 -16v35q4 0 8 6t8 10zM1473 938l-23 -29l20 39zM1487 764q4 20 8 31l-4 -31h-4zM1780 713q-43 0 -102.5 16l-102.5 27q2 8 4 15t2 15q6 -2 16 -2t15 -4l4 2q27 -6 57 -6l6 6q0 8 -24.5 10.5t-30.5 4.5l2 8h31q51 0 101 -6t97 -29 q-14 -20 -47 -31l-4 -6q2 -16 -3 -18t-21 -2zM1491 752h-4h4zM1642 725l-2 -4q0 -4 15 -8l32 -10q17 -5 34.5 -8t23.5 -5q-47 8 -91 17.5t-87 21.5l4 14q18 -4 35.5 -9t35.5 -9zM1737 705q23 -4 28 -5q8 0 31 -10l-30.5 7.5t-28.5 7.5zM1587 817q10 37 16.5 74t14.5 76 q-4 -39 -7 -76t-5 -74h-19zM1501 735l43 -12q-6 -14 -23.5 -39t-27.5 -41q4 23 5 46t3 46zM1503 752h25q8 0 24 -4l-4 -15q-12 4 -23.5 7t-21.5 8v4zM1507 803l28 -4l28 -4l6 -4q-2 -10 -10 -31q-14 4 -29 4h-27zM1485 915v21l18 27q-4 -12 -9 -25zM1401 831q2 0 3 -1t3 -1 t11 13l21 28l21 31q10 14 13 19q2 -10 2 -31q0 -6 -11.5 -29.5l-26.5 -52.5l-30 -54q-14 -26 -18 -34q4 29 6 56t6 56zM1331 737q12 16 19 23q0 -12 -3.5 -17.5l-11.5 -17.5zM1348 721v-29l-7 17zM1315 750l2 -9l-4 -6zM530 1069h-4q-4 2 -14 2l-12 12l4 2q6 -2 14 -6 t12 -10zM571 1061h2h-2zM117 502v141q100 -4 198.5 -20.5t198.5 -30.5v-23q-200 -22 -397 -67zM514 780v-41q-31 2 -72 4t-80.5 9.5t-75.5 21.5t-55 43q4 4 15 4q70 0 136 -12.5t132 -28.5zM645 696q-10 10 -22.5 17.5t-24.5 11.5v33q35 -10 69.5 -18.5t69.5 -14.5 q-16 -14 -44 -19zM557 588h-2h2zM514 676v-17q-14 4 -26.5 8.5t-26.5 8.5h53zM629 694q-8 0 -15.5 -1t-15.5 -1v21q15 -7 31 -19zM662 612h-52q8 0 8 6q0 4 -8 6.5t-12 4.5v51q10 2 20 2t21 2q12 -16 16.5 -34t6.5 -38zM514 557v-90q-49 -10 -98 -14t-101 -4h-53 q-37 0 -73.5 5t-71.5 11v22q98 25 197.5 42.5t199.5 27.5zM657 571q-6 -23 -22.5 -41t-36.5 -30v20q0 4 2 11.5t4 11.5l-6 2v22q16 0 29.5 1t29.5 3zM662 600v-10q-4 0 -13.5 1t-21 2t-19.5 2t-10 1v4h64zM598 477v8q27 14 46.5 36t25.5 50q2 0 12 1l20 2q10 1 18.5 2.5 t8.5 5.5t-8 6t-19 2h-18h-10v12q92 4 180 12q-63 -37 -127 -69zM524 885l2 -2zM440 893l27 -2zM598 893v2q4 -2 14 -2h-14zM700 864q4 0 13 4h8q-4 -4 -4 -8zM666 852h2h4h-6zM510 913l2 -8h-10zM477 985q10 -12 17.5 -26.5t11.5 -30.5l-23 -21q-4 0 -14 1t-23 1 q-12 0 -21 -2t-9 -8l16 -4v-12q23 0 42.5 -4.5t39.5 -10.5v-75q-66 16 -131.5 28.5t-130.5 12.5q-8 0 -20.5 -2.5t-12.5 -12.5q0 -29 38 -46t88 -26.5t99.5 -13.5t69.5 -6v-39q-6 0 -25.5 1t-39.5 1t-37 -2t-17 -8q4 -4 20.5 -9l35 -10.5t36 -9.5t27.5 -6v-29 q-100 6 -198.5 20.5t-198.5 18.5v215q0 86 56 139.5t142 53.5q29 0 56.5 -6t52.5 -23q-4 -4 0 -8t11 -8t14.5 -7t11.5 -5q-6 0 -21.5 -1t-32 -3.5t-29.5 -5.5t-13 -7l6 -8h53q26 0 53 4zM545 1059l4 -2q-4 -4 -8 -5t-9 -3q-2 4 -4 5t-4 5q4 -2 10.5 -1t10.5 1zM565 1030h-8 h-12l-2 6q4 4 13 8.5t15 4.5q-2 -4 -4 -7.5t-2 -7.5v-4zM631 995q2 4 6 9l10 -11q-4 0 -8 1t-8 1zM563 1018h-2h2zM496 1100q-4 0 -13.5 1t-13.5 5l8 8zM279 1546h36h-10h-8h-18zM743 842h-4l-2 4l21 -4h-15zM598 291v82q20 -6 36.5 -16.5t33.5 -22.5q-27 -31 -70 -43z M532 51q2 -4 13 -4h16q-8 -2 -15 -3t-18 -1h-8q-14 0 -26.5 1t-24.5 3q12 4 23 4h40zM637 49v2q29 0 57.5 1t57.5 5q-29 -6 -58 -6q-28 0 -57 -2zM629 63l-17 13q45 6 90.5 10t90.5 4v12l-222 -10l43 4l2 13l-67 16q29 16 60.5 22.5t62.5 16.5v12q-80 18 -154 49l43 6l2 13 l-59 18q47 4 95 16.5t81 51.5v8l-82 47v78l143 75l144 78l-2 13l-209 -15l-21 72q29 4 53.5 14.5t47.5 24.5l-2 10q-41 6 -78 16l-76 19v53l14 11l140 -17l6 4l30 -6l5 12l-15 4l43 5v12l-88 10l31 2l2 12q-43 12 -84 15.5t-82 19.5l14 60l13 10l123 -4l-82 14l-23 25 q29 31 70 41t82 10q84 0 141 -53.5t57 -139.5v-870h84v694l13 13l704 -707h117l-750 752l35 6l6 -35l29 31l-6 -27l10 -6l27 24l-4 -40l12 -5l24 37l-2 -82l11 -4l28 43l10 -37h13l12 39v-34h12q0 12 13 37l27 57q15 31 31.5 58.5t23.5 43.5l-2 -94l-27 -12l43 -15l-12 -123 l12 -4l29 52l6 -17l37 74q70 -18 140.5 -32.5t141.5 -24.5l-35 -31l52 -19l-88 -18l-3 -12l56 -25l4 12l-37 15l90 22v12l-57 19l35 22l59 -6v13q-31 2 -63.5 8t-57.5 28q10 20 30.5 37t39.5 29l-2 10q-53 27 -110.5 33t-115.5 6l21 43l-10 6l-31 -49h-2q2 55 8 111.5 t6 111.5l-12 2q-14 -57 -23.5 -113.5t-21.5 -111.5h-66l4 43l-12 2l-12 -45h-2v14q-2 43 12 84l29 82l-10 7l-35 -50l-15 17l-65 -131l-17 2l-14 -70l-6 35q-8 -16 -18 -30l-21 -25l-16 51l-13 -2l-2 -41l-22 -33l2 35l-10 4l-23 -23l19 45l-11 7l-43 -52q6 10 2 27.5 t-8 28.5l-2 -29l-47 -8l-2 2l700 698h-118l-654 -649v649h-84v-383q-41 35 -93 50.5t-105 15.5q-35 0 -59.5 -7.5t-48 -18.5t-46 -24.5t-51.5 -25.5l-60 21v4l-14 2l-37 30l-24 -14l-39 16l94 15v12l-82 16q27 -4 53.5 -0.5t53.5 11.5v12l-148 45h96q51 0 100.5 6t95.5 22.5 t83 51.5l-4 10q-109 0 -218.5 -3t-213.5 30l94 39l-4 12q-39 -8 -78 -9t-80 -3q14 12 60.5 16t99.5 6t102 2q51 0 76 4v13q-53 8 -105.5 17t-103.5 26q49 23 98.5 42t104.5 21l4 12l156 33l-2 12l-101 5q-43 2 -86 -4.5t-86 -2.5l35 29l-61 19l71 118l-12 9l-20 -32l-27 -46 q-14 -25 -23.5 -46.5t-7.5 -31.5l41 8l21 -6l-52 -25q8 -4 32 -7t34 -3q51 0 100 5t101 1q-37 -10 -75 -19t-77 -9l-45 8l-4 8q-45 2 -88 9t-88 13v-12l76 -12l-50 4v-12l136 -15q-53 -4 -109 -4q-55 0 -109 -6l181 -12h18l-104 -45v-12q41 -16 84 -25.5t86 -15.5 q-74 -2 -152 -3.5t-143 -39.5l6 -7h59q31 0 60 4l-62 -24v-12q59 -23 124 -30t128 -5l182 2q-35 -27 -76.5 -40t-85.5 -19.5t-89 -6.5h-89q-4 0 -15 1t-23.5 0t-20.5 -4t-2 -9q45 -10 88 -24l86 -27l-43 -6q-35 0 -68.5 6t-68.5 10l-2 -12q70 -23 141 -37l-42 -8 q-22 -4 -44 -4q-41 0 -80 1t-72.5 -5.5t-64.5 -24.5t-55 -59v84h-84v-654l-19 -4l19 -12v-176h84v166q98 -16 198.5 -18.5t198.5 20.5q-4 -14 -5 -36t0 -46.5t3 -48t2 -37.5h70q-29 -8 -57 -11l-56 -4l-2 -12l63 -20l-36 -7v-12q37 -16 73.5 -28.5t77.5 -22.5 q-29 -10 -58.5 -17.5t-56.5 -21.5l35 -27l-26 -4l-2 -12l8 -2q-41 -4 -83 -6t-83 -2l-2 -12l67 -11l-14 -16q82 -4 162 -29l4 13l-31 6q49 6 104.5 5t100.5 25q-8 2 -18.5 5.5t-18.5 3.5zM545 63l24 5l25 4q4 -2 7 -3t7 -6h-43h-20zM530 74q-8 -2 -20 -6.5t-18 -4.5 q-12 0 -23.5 1.5t-22.5 3.5q41 0 84 6zM737 844l2 -2h4z" />
<glyph unicode="&#xd8;" d="M1608 731q0 379 -273 594l86 123l-75 47l-84 -119q-180 106 -408 107q-332 0 -543 -211q-209 -209 -209 -541q0 -178 72 -338q74 -164 215 -266l-82 -119l74 -49l82 119q180 -98 391 -98q332 0 543 210q211 209 211 541zM1524 731q0 -297 -187 -483q-188 -184 -483 -185 q-184 0 -342 84l774 1108q238 -190 238 -524zM1214 1307l-776 -1110q-123 90 -186 225q-66 137 -66 309q0 293 188.5 481.5t479.5 188.5q192 0 360 -94z" />
<glyph unicode="&#xd9;" horiz-adv-x="1136" d="M643 1581l-246 248l-43 -45l244 -244zM1004 365v1097h-84v-1097q0 -137 -105 -220q-96 -76 -237 -75q-143 0 -238 73q-102 80 -102 222v1097h-82v-1097q0 -178 125 -283q119 -96 297 -96q184 0 296 94q130 107 130 285z" />
<glyph unicode="&#xda;" horiz-adv-x="1136" d="M815 1772l-39 40l-229 -229l41 -39zM1004 365v1097h-84v-1097q0 -137 -105 -220q-96 -76 -237 -75q-143 0 -238 73q-102 80 -102 222v1097h-82v-1097q0 -178 125 -283q119 -96 297 -96q184 0 296 94q130 107 130 285z" />
<glyph unicode="&#xdb;" horiz-adv-x="1136" d="M827 1602l-245 247l-250 -247l45 -43l205 202l204 -202zM1004 365v1097h-84v-1097q0 -137 -105 -220q-96 -76 -237 -75q-143 0 -238 73q-102 80 -102 222v1097h-82v-1097q0 -178 125 -283q119 -96 297 -96q184 0 296 94q130 107 130 285z" />
<glyph unicode="&#xdc;" horiz-adv-x="1136" d="M782 1630q-16 68 -67 68q-68 -12 -68 -68q2 -31 21 -49q25 -18 47 -18q67 -1 67 67zM502 1630q-16 68 -68 68q-68 -12 -67 -68q2 -31 20 -49q25 -18 47 -18q68 -1 68 67zM1004 365v1097h-84v-1097q0 -137 -105 -220q-96 -76 -237 -75q-143 0 -238 73q-102 80 -102 222 v1097h-82v-1097q0 -178 125 -283q119 -96 297 -96q184 0 296 94q130 107 130 285z" />
<glyph unicode="&#xdd;" horiz-adv-x="1046" d="M776 1772l-43 45l-229 -238l43 -35zM985 1462h-96l-365 -633l-360 633h-96l415 -731v-731h84v731z" />
<glyph unicode="&#xde;" horiz-adv-x="1003" d="M909 743q0 166 -114.5 264.5t-282.5 98.5h-274v356h-82v-1462h82v375h274q168 0 283 102q114 98 114 266zM825 743q0 -133 -90 -211q-90 -74 -225 -73h-272v563h272q137 0 221 -70q94 -76 94 -209z" />
<glyph unicode="&#xdf;" horiz-adv-x="1103" d="M1034 430q0 182 -114 291q-94 88 -234 106q164 109 164 303q0 141 -102 238q-104 94 -246 94q-164 0 -252 -100q-88 -96 -88 -262v-254h-117v-84h117v-762h82v1098q0 281 258 280q109 0 186.5 -71.5t77.5 -176.5q0 -111 -72 -198q-72 -86 -182 -86v-82q438 0 438 -334 q0 -141 -84 -242q-90 -104 -227 -104h-233v-84h231q186 0 295 123q102 119 102 307z" />
<glyph unicode="&#xe0;" horiz-adv-x="1044" d="M582 1008l-275 274l-45 -49l268 -272zM930 0v846h-84v-148q-135 160 -338 160q-184 0 -311 -127q-125 -125 -125 -309t127 -311q125 -125 309 -125q205 0 338 159v-145h84zM862 422q0 -147 -104 -252q-102 -102 -250 -102q-145 0 -249.5 104t-104.5 250q0 147 104 252 q102 102 250 102q145 0 249.5 -104.5t104.5 -249.5z" />
<glyph unicode="&#xe1;" horiz-adv-x="1044" d="M762 1233l-45 49l-275 -274l52 -47zM930 0v846h-84v-148q-135 160 -338 160q-184 0 -311 -127q-125 -125 -125 -309t127 -311q125 -125 309 -125q205 0 338 159v-145h84zM862 422q0 -147 -104 -252q-102 -102 -250 -102q-145 0 -249.5 104t-104.5 250q0 147 104 252 q102 102 250 102q145 0 249.5 -104.5t104.5 -249.5z" />
<glyph unicode="&#xe2;" horiz-adv-x="1044" d="M748 1016l-246 246l-250 -246l45 -45l205 203l205 -203zM930 0v846h-84v-148q-135 160 -338 160q-184 0 -311 -127q-125 -125 -125 -309t127 -311q125 -125 309 -125q205 0 338 159v-145h84zM862 422q0 -147 -104 -252q-102 -102 -250 -102q-145 0 -249.5 104t-104.5 250 q0 147 104 252q102 102 250 102q145 0 249.5 -104.5t104.5 -249.5z" />
<glyph unicode="&#xe3;" horiz-adv-x="1044" d="M842 1096l-58 45q-51 -57 -141 -58l-63 9l-60 26q-31 20 -57 29q-16 4 -35.5 6t-46.5 2q-137 0 -195 -104l56 -45q63 68 139 67l61 -8q14 -4 28.5 -11t31.5 -18q55 -37 145 -37q70 0 123 29l33 27zM930 0v846h-84v-148q-135 160 -338 160q-184 0 -311 -127 q-125 -125 -125 -309t127 -311q125 -125 309 -125q205 0 338 159v-145h84zM862 422q0 -147 -104 -252q-102 -102 -250 -102q-145 0 -249.5 104t-104.5 250q0 147 104 252q102 102 250 102q145 0 249.5 -104.5t104.5 -249.5z" />
<glyph unicode="&#xe4;" horiz-adv-x="1044" d="M698 1065q-16 68 -67 68q-68 -12 -68 -68q2 -31 21 -49q25 -18 47 -19q67 0 67 68zM418 1065q-16 68 -68 68q-68 -12 -67 -68q2 -31 20 -49q25 -18 47 -19q68 0 68 68zM930 0v846h-84v-148q-135 160 -338 160q-184 0 -311 -127q-125 -125 -125 -309t127 -311 q125 -125 309 -125q205 0 338 159v-145h84zM862 422q0 -147 -104 -252q-102 -102 -250 -102q-145 0 -249.5 104t-104.5 250q0 147 104 252q102 102 250 102q145 0 249.5 -104.5t104.5 -249.5z" />
<glyph unicode="&#xe5;" horiz-adv-x="1044" d="M670 1102q0 68 -51.5 119t-118.5 51q-68 0 -119 -51.5t-51 -118.5q0 -68 51 -119t119 -51t119 51t51 119zM930 0v846h-84v-148q-135 160 -338 160q-184 0 -311 -127q-125 -125 -125 -309t127 -311q125 -125 309 -125q205 0 338 159v-145h84zM627 1104q0 -49 -39 -88 t-88 -39t-88 39t-39 88t39 88t88 39t88 -39t39 -88zM862 422q0 -147 -104 -252q-102 -102 -250 -102q-145 0 -249.5 104t-104.5 250q0 147 104 252q102 102 250 102q145 0 249.5 -104.5t104.5 -249.5z" />
<glyph unicode="&#xe6;" horiz-adv-x="1798" d="M1726 440q0 188 -124 301q-125 115 -312 115q-238 0 -360 -176v166h-84v-148q-135 160 -338 160q-184 0 -311 -127q-125 -125 -125 -309t127 -311q125 -125 309 -125q205 0 338 159v-145h84v160q127 -176 360 -176q80 0 144 20q166 53 245 205l-75 35q-70 -113 -158 -150 q-70 -29 -156 -28q-168 0 -264 102q-92 100 -92 272h792zM1632 520h-686q82 254 344 254q152 0 248 -90q74 -70 94 -164zM862 422q0 -147 -104 -252q-102 -102 -250 -102q-145 0 -249.5 104t-104.5 250q0 147 104 252q102 102 250 102q145 0 249.5 -104.5t104.5 -249.5z" />
<glyph unicode="&#xe7;" horiz-adv-x="897" d="M793 59v111l-64 -51q-88 -51 -194 -51q-154 0 -254.5 100t-100.5 254q0 156 101 256q98 100 254 100q109 0 196 -51l31 -25l31 -26v110l-66 37q-92 37 -192 37q-188 0 -314 -125q-125 -123 -125 -313q0 -178 108.5 -299t284.5 -139l-26 -80l39 -31q20 -20 20 -43l-4 -16 l-6 -13q-16 -16 -33 -16q-23 0 -41 12l-32 29l-27 -72q43 -51 104 -51q47 0 86 33q37 33 37 80q-12 80 -55 100l27 70q82 0 155 37z" />
<glyph unicode="&#xe8;" horiz-adv-x="1003" d="M598 1008l-274 274l-45 -49l268 -272zM944 440q0 186 -125 303q-123 117 -311 117q-190 0 -315 -125q-123 -123 -123 -313q0 -188 125 -313q123 -125 313 -125q80 0 143 20q166 53 246 205l-76 35q-70 -113 -157 -150q-70 -29 -156 -28q-168 0 -264 102q-92 100 -92 272 h792zM850 520h-686q82 258 344 258q125 0 221 -69q101 -72 121 -189z" />
<glyph unicode="&#xe9;" horiz-adv-x="1003" d="M729 1233l-45 49l-274 -274l49 -47zM944 440q0 186 -125 303q-123 117 -311 117q-190 0 -315 -125q-123 -123 -123 -313q0 -188 125 -313q123 -125 313 -125q80 0 143 20q166 53 246 205l-76 35q-70 -113 -157 -150q-70 -29 -156 -28q-168 0 -264 102q-92 100 -92 272 h792zM850 520h-686q82 258 344 258q125 0 221 -69q101 -72 121 -189z" />
<glyph unicode="&#xea;" horiz-adv-x="1003" d="M762 1016l-246 246l-248 -246l43 -45l205 203l205 -203zM944 440q0 186 -125 303q-123 117 -311 117q-190 0 -315 -125q-123 -123 -123 -313q0 -188 125 -313q123 -125 313 -125q80 0 143 20q166 53 246 205l-76 35q-70 -113 -157 -150q-70 -29 -156 -28q-168 0 -264 102 q-92 100 -92 272h792zM850 520h-686q82 258 344 258q125 0 221 -69q101 -72 121 -189z" />
<glyph unicode="&#xeb;" horiz-adv-x="1003" d="M713 1065q-16 68 -68 68q-68 -12 -67 -68q2 -31 20 -49q25 -18 47 -19q68 0 68 68zM432 1065q-16 68 -67 68q-68 -12 -68 -68q2 -31 20 -49q25 -18 48 -19q67 0 67 68zM944 440q0 186 -125 303q-123 117 -311 117q-190 0 -315 -125q-123 -123 -123 -313q0 -188 125 -313 q123 -125 313 -125q80 0 143 20q166 53 246 205l-76 35q-70 -113 -157 -150q-70 -29 -156 -28q-168 0 -264 102q-92 100 -92 272h792zM850 520h-686q82 258 344 258q125 0 221 -69q101 -72 121 -189z" />
<glyph unicode="&#xec;" horiz-adv-x="376" d="M242 1008l-273 274l-47 -49l271 -272zM233 0v846h-83v-846h83z" />
<glyph unicode="&#xed;" horiz-adv-x="376" d="M471 1233l-47 49l-274 -274l51 -47zM233 0v846h-83v-846h83z" />
<glyph unicode="&#xee;" horiz-adv-x="522" d="M512 1016l-246 246l-250 -246l45 -45l205 203l205 -203zM303 0v846h-84v-846h84z" />
<glyph unicode="&#xef;" horiz-adv-x="376" d="M395 1065q-16 68 -67 68q-68 -12 -68 -68q2 -31 21 -49q25 -18 47 -19q67 0 67 68zM115 1065q-16 68 -68 68q-68 -16 -67 -68q12 -68 67 -68q68 0 68 68zM233 0v846h-83v-846h83z" />
<glyph unicode="&#xf0;" horiz-adv-x="1019" d="M944 422q0 299 -76 477q-66 150 -215 283l187 116l-82 54l-180 -113q-104 74 -216 104l-73 -71l104 -43l92 -47l-178 -113l82 -53l176 110q209 -152 260 -405q-131 137 -317 137q-184 0 -311 -127q-125 -125 -125 -309t127 -311q125 -125 309 -125t311 127 q125 125 125 309zM862 422q0 -147 -104 -252q-102 -102 -250 -102q-145 0 -249.5 104t-104.5 250q0 147 104 252q102 102 250 102q145 0 249.5 -104.5t104.5 -249.5z" />
<glyph unicode="&#xf1;" horiz-adv-x="923" d="M788 1096l-59 45q-43 -43 -59 -49l-25 -9h-47l-72 9l-59 24q-10 6 -18 10l-17 9q-55 20 -106 20q-137 0 -195 -104l57 -45q51 68 127 67q45 0 74 -12l60 -25q61 -37 157 -37q63 0 111 29l33 27zM788 0v514q0 162 -83.5 252t-241.5 90q-186 0 -244 -113v103h-84v-846h84 v514q0 121 64 191q61 70 180 69q242 0 242 -268v-506h83z" />
<glyph unicode="&#xf2;" horiz-adv-x="1019" d="M596 1008l-274 274l-46 -49l269 -272zM944 422q0 184 -127 311t-309 127q-184 0 -309 -129q-127 -127 -127 -309q0 -184 127 -311q125 -125 309 -125t311 127q125 125 125 309zM862 422q0 -147 -104 -252q-102 -102 -250 -102q-145 0 -249.5 104t-104.5 250 q0 143 106 250q104 106 248 106q150 0 252 -104q102 -102 102 -252z" />
<glyph unicode="&#xf3;" horiz-adv-x="1019" d="M737 1233l-45 49l-274 -274l51 -47zM944 422q0 184 -127 311t-309 127q-184 0 -309 -129q-127 -127 -127 -309q0 -184 127 -311q125 -125 309 -125t311 127q125 125 125 309zM862 422q0 -147 -104 -252q-102 -102 -250 -102q-145 0 -249.5 104t-104.5 250q0 143 106 250 q104 106 248 106q150 0 252 -104q102 -102 102 -252z" />
<glyph unicode="&#xf4;" horiz-adv-x="1019" d="M748 1016l-246 246l-250 -246l45 -45l205 203l205 -203zM944 422q0 184 -127 311t-309 127q-184 0 -309 -129q-127 -127 -127 -309q0 -184 127 -311q125 -125 309 -125t311 127q125 125 125 309zM862 422q0 -147 -104 -252q-102 -102 -250 -102q-145 0 -249.5 104 t-104.5 250q0 143 106 250q104 106 248 106q150 0 252 -104q102 -102 102 -252z" />
<glyph unicode="&#xf5;" horiz-adv-x="1019" d="M825 1096l-59 45q-43 -43 -59 -49l-25 -9h-47l-72 9l-59 24q-10 6 -19 10l-16 9q-55 20 -107 20q-137 0 -194 -104l57 -45q51 68 127 67q45 0 74 -12l59 -25q61 -37 158 -37q63 0 111 29l32 27zM944 422q0 184 -127 311t-309 127q-184 0 -309 -129q-127 -127 -127 -309 q0 -184 127 -311q125 -125 309 -125t311 127q125 125 125 309zM862 422q0 -147 -104 -252q-102 -102 -250 -102q-145 0 -249.5 104t-104.5 250q0 143 106 250q104 106 248 106q150 0 252 -104q102 -102 102 -252z" />
<glyph unicode="&#xf6;" horiz-adv-x="1019" d="M707 1065q-16 68 -68 68q-68 -12 -68 -68q2 -31 21 -49q25 -18 47 -19q68 0 68 68zM426 1065q-16 68 -68 68q-68 -12 -67 -68q2 -31 20 -49q25 -18 47 -19q68 0 68 68zM944 422q0 184 -127 311t-309 127q-184 0 -309 -129q-127 -127 -127 -309q0 -184 127 -311 q125 -125 309 -125t311 127q125 125 125 309zM862 422q0 -147 -104 -252q-102 -102 -250 -102q-145 0 -249.5 104t-104.5 250q0 143 106 250q104 106 248 106q150 0 252 -104q102 -102 102 -252z" />
<glyph unicode="&#xf7;" horiz-adv-x="741" d="M446 780q-16 68 -67 68q-68 -12 -68 -68q2 -31 21 -49q25 -18 47 -18q67 -1 67 67zM643 489v105h-526v-105h526zM446 299q-16 68 -67 68q-68 -12 -68 -68q2 -31 21 -49q25 -18 47 -19q67 0 67 68z" />
<glyph unicode="&#xf8;" horiz-adv-x="1019" d="M944 422q0 193 -143 323l84 121l-74 49l-82 -116q-102 59 -221 59q-184 0 -311 -127q-125 -125 -125 -309q0 -207 157 -336l-73 -106l69 -52l76 109q94 -51 207 -51q184 0 311 127q125 125 125 309zM862 422q0 -147 -104 -252q-102 -102 -250 -102l-82 8l-39 12l-37 16 l404 574q108 -102 108 -256zM682 731l-406 -577q-123 106 -122 268q0 147 104 252q102 102 250 102q90 0 174 -45z" />
<glyph unicode="&#xf9;" horiz-adv-x="878" d="M500 1008l-275 274l-45 -49l269 -272zM756 317v529h-82v-529q0 -252 -236 -251q-121 0 -176 65q-53 66 -53 186v529h-84v-529q0 -158 82 -245.5t231 -87.5q152 0 236 90q82 87 82 243z" />
<glyph unicode="&#xfa;" horiz-adv-x="878" d="M719 1233l-45 49l-275 -274l50 -47zM756 317v529h-82v-529q0 -252 -236 -251q-121 0 -176 65q-53 66 -53 186v529h-84v-529q0 -158 82 -245.5t231 -87.5q152 0 236 90q82 87 82 243z" />
<glyph unicode="&#xfb;" horiz-adv-x="878" d="M688 1016l-248 246l-247 -246l43 -45l204 203l205 -203zM756 317v529h-82v-529q0 -252 -236 -251q-121 0 -176 65q-53 66 -53 186v529h-84v-529q0 -158 82 -245.5t231 -87.5q152 0 236 90q82 87 82 243z" />
<glyph unicode="&#xfc;" horiz-adv-x="878" d="M645 1065q-16 68 -67 68q-68 -12 -68 -68q2 -31 20 -49q25 -18 48 -19q67 0 67 68zM365 1065q-16 68 -68 68q-68 -12 -68 -68q2 -31 21 -49q25 -18 47 -19q68 0 68 68zM756 317v529h-82v-529q0 -252 -236 -251q-121 0 -176 65q-53 66 -53 186v529h-84v-529 q0 -158 82 -245.5t231 -87.5q152 0 236 90q82 87 82 243z" />
<glyph unicode="&#xfd;" d="M1608 731q0 379 -273 594l86 123l-75 47l-84 -119q-180 106 -408 107q-332 0 -543 -211q-209 -209 -209 -541q0 -178 72 -338q74 -164 215 -266l-82 -119l74 -49l82 119q180 -98 391 -98q332 0 543 210q211 209 211 541zM1214 1307l-776 -1110q-123 90 -186 225 q-66 137 -66 309q0 293 189 481q184 188 479 189q192 0 360 -94zM1524 764v-33q0 -297 -187 -483q-188 -184 -483 -185q-184 0 -342 84l774 1108q141 -115 197 -274q-45 39 -105 39q-68 0 -119 -51t-51 -119t51.5 -119t118.5 -51q68 0 119 51q15 15 27 33zM1505 852 q0 -49 -39 -88t-88 -39t-88 39t-39 88t39 88t88 39t88 -39t39 -88zM811 850q0 68 -51 119t-119 51t-119 -51t-51 -119t51 -119t119 -51t119 51t51 119zM768 852q0 -49 -39 -88t-88 -39t-88 39t-39 88t39 88t88 39t88 -39t39 -88zM616 817q0 -18 13.5 -31.5t32.5 -13.5 q18 0 31.5 13.5t13.5 31.5t-13.5 31.5t-31.5 13.5t-32 -13.5t-14 -31.5zM1356 811q0 -18 13 -31.5t32 -13.5q18 0 31.5 13.5t13.5 31.5t-13.5 31.5t-31.5 13.5t-31.5 -13.5t-13.5 -31.5zM1262 309l-37 45q-76 -76 -174 -75q-106 0 -187 79l-43 -49q84 -90 221 -90 q142 0 220 90z" />
<glyph unicode="&#xfe;" horiz-adv-x="1050" d="M999 422q0 184 -127 311q-125 125 -309 125q-217 0 -348 -172v830h-84v-1913h84v555q137 -172 348 -172q184 0 311 127q125 125 125 309zM918 422q0 -147 -105 -252q-102 -102 -250 -102q-145 0 -249.5 104t-104.5 250q0 147 104 252q102 102 250 102q145 0 250 -104.5 t105 -249.5z" />
<glyph unicode="&#xff;" horiz-adv-x="911" d="M678 1065q-16 68 -68 68q-68 -12 -67 -68q2 -31 20 -49q25 -18 47 -19q68 0 68 68zM397 1065q-16 68 -67 68q-68 -12 -68 -68q2 -31 21 -49q25 -18 47 -19q67 0 67 68zM866 846h-92l-311 -668l-316 668h-90l357 -768l-219 -475h94z" />
<glyph unicode="&#x152;" horiz-adv-x="2351" d="M2226 0v84h-618v672h618v90h-618v532h618v84h-702v-366q-96 188 -279 290q-174 96 -391 97q-332 0 -543 -211q-209 -209 -209 -541t211 -543q209 -209 541 -208q223 0 391 96q178 100 279 291v-367h702zM1524 731q0 -297 -187 -483q-188 -184 -483 -185q-293 0 -481 189 q-186 186 -187 479q0 293 188.5 481.5t479.5 188.5q295 0 483 -189q187 -186 187 -481z" />
<glyph unicode="&#x153;" horiz-adv-x="1808" d="M1739 440q0 188 -125 301q-125 115 -311 115q-133 0 -242 -65.5t-160 -182.5q-57 113 -164 183q-104 68 -229 67q-184 0 -311 -127q-125 -125 -125 -309t127 -311q125 -125 309 -125q127 0 235 67q104 66 158 183q55 -119 162 -187q109 -66 240 -65q80 0 143 20 q166 53 246 205l-76 35q-70 -113 -158 -150q-70 -29 -155 -28q-168 0 -265 102q-92 100 -92 272h793zM1645 520h-687q82 254 345 254q152 0 247 -90q75 -70 95 -164zM862 422q0 -147 -104 -252q-102 -102 -250 -102q-145 0 -249.5 104t-104.5 250q0 147 104 252 q102 102 250 102q145 0 249.5 -104.5t104.5 -249.5z" />
<glyph unicode="&#x178;" horiz-adv-x="1046" d="M725 1630q-16 68 -68 68q-68 -12 -67 -68q2 -31 20 -49q25 -18 47 -18q68 -1 68 67zM444 1630q-16 68 -67 68q-68 -12 -68 -68q2 -31 21 -49q25 -18 47 -18q67 -1 67 67zM985 1462h-96l-365 -633l-360 633h-96l415 -731v-731h84v731z" />
<glyph unicode="&#x2c6;" horiz-adv-x="774" d="M639 1016l-246 246l-246 -246l41 -45l205 203l205 -203z" />
<glyph unicode="&#x2dc;" horiz-adv-x="866" d="M772 1096l-59 45q-43 -43 -60 -49l-24 -9h-47l-72 9l-59 24q-10 6 -19 10l-16 9q-55 20 -107 20q-137 0 -194 -104l57 -45q51 68 127 67q45 0 74 -12l59 -25q61 -37 158 -37q63 0 110 29l33 27z" />
<glyph unicode="&#x2000;" horiz-adv-x="923" />
<glyph unicode="&#x2001;" horiz-adv-x="1849" />
<glyph unicode="&#x2002;" horiz-adv-x="923" />
<glyph unicode="&#x2003;" horiz-adv-x="1849" />
<glyph unicode="&#x2004;" horiz-adv-x="616" />
<glyph unicode="&#x2005;" horiz-adv-x="460" />
<glyph unicode="&#x2006;" horiz-adv-x="307" />
<glyph unicode="&#x2007;" horiz-adv-x="307" />
<glyph unicode="&#x2008;" horiz-adv-x="229" />
<glyph unicode="&#x2009;" horiz-adv-x="368" />
<glyph unicode="&#x200a;" horiz-adv-x="102" />
<glyph unicode="&#x2010;" horiz-adv-x="555" d="M469 500v84h-432v-84h432z" />
<glyph unicode="&#x2011;" horiz-adv-x="555" d="M469 500v84h-432v-84h432z" />
<glyph unicode="&#x2012;" horiz-adv-x="555" d="M469 500v84h-432v-84h432z" />
<glyph unicode="&#x2013;" horiz-adv-x="761" d="M682 500v84h-596v-84h596z" />
<glyph unicode="&#x2014;" horiz-adv-x="1263" d="M1171 500v84h-1065v-84h1065z" />
<glyph unicode="&#x2018;" horiz-adv-x="333" d="M225 1155v148h-67v92q0 55 37 96h-41q-37 -29 -37 -96v-240h108z" />
<glyph unicode="&#x2019;" horiz-adv-x="323" d="M238 1268v239h-109v-147h68v-92q0 -57 -37 -97h41q37 46 37 97z" />
<glyph unicode="&#x201a;" horiz-adv-x="323" d="M238 31v239h-109v-147h68v-92q0 -57 -37 -97h41q20 14 26 43q11 25 11 54z" />
<glyph unicode="&#x201c;" horiz-adv-x="585" d="M469 1155v148h-68v92q0 55 37 96h-41q-37 -29 -37 -96v-240h109zM233 1155v148h-67v92q0 55 37 96h-41q-37 -29 -37 -96v-240h108z" />
<glyph unicode="&#x201d;" horiz-adv-x="616" d="M479 1268v239h-108v-147h67v-92q0 -57 -37 -97h41q37 46 37 97zM244 1268v239h-109v-147h68v-92q0 -57 -37 -97h41q37 46 37 97z" />
<glyph unicode="&#x201e;" horiz-adv-x="616" d="M479 31v239h-108v-147h67v-92q0 -57 -37 -97h41q20 14 27 43q10 25 10 54zM244 31v239h-109v-147h68v-92q0 -57 -37 -97h41q20 14 26 43q11 25 11 54z" />
<glyph unicode="&#x2022;" horiz-adv-x="602" d="M438 672q0 68 -49 121q-49 49 -121 49q-70 0 -121 -49q-49 -53 -49 -121q0 -72 49 -121q51 -49 121 -49q72 0 121 49t49 121z" />
<glyph unicode="&#x2026;" horiz-adv-x="856" d="M127 55q-16 68 -68 68q-68 -12 -67 -68q2 -31 20 -49q25 -18 47 -18q68 -1 68 67zM420 55q-16 68 -68 68q-68 -12 -67 -68q2 -31 20 -49q25 -18 47 -18q68 -1 68 67zM713 55q-16 68 -68 68q-68 -12 -67 -68q2 -31 20 -49q25 -18 47 -18q68 -1 68 67z" />
<glyph unicode="&#x202f;" horiz-adv-x="368" />
<glyph unicode="&#x2039;" horiz-adv-x="575" d="M481 866l-43 43l-385 -387l377 -379l43 43l-338 336z" />
<glyph unicode="&#x203a;" horiz-adv-x="575" d="M520 522l-387 387l-41 -43l344 -344l-336 -336l41 -43z" />
<glyph unicode="&#x205f;" horiz-adv-x="460" />
<glyph unicode="&#x20ac;" horiz-adv-x="1437" d="M1362 559v82h-1151q-2 23 -3 45.5t-1 44.5q0 20 1 40t3 38h1151v84h-1139q37 186 172 319q184 188 479 189q170 0 326 -64q102 -43 189 -114v104q-84 66 -175 100q-152 55 -340 56q-332 0 -542 -211q-156 -156 -195 -379h-135v-84h123q-2 -18 -2 -39v-39q0 -23 1 -45 t3 -45h-125v-82h137q39 -215 195 -371q209 -209 540 -208q29 0 55.5 1t49.5 3q197 18 311 102l99 72v96q-119 -86 -197 -125q-135 -66 -318 -66q-293 0 -481 189q-127 127 -168 307h1137z" />
<glyph unicode="&#x2122;" horiz-adv-x="690" d="M645 1120l-67 330l-107 -303l-104 303l-74 -330h14l62 283l102 -299l102 299l58 -283h14zM303 1434v12h-223v-12h104v-316h15v316h104z" />
<glyph unicode="&#xe000;" horiz-adv-x="845" d="M0 845h845v-845h-845v845z" />
<glyph unicode="&#xfb01;" horiz-adv-x="931" d="M815 1065q-16 68 -67 68q-68 -12 -68 -68q2 -31 20 -49q25 -18 48 -19q67 0 67 68zM788 0v846h-83v-846h83zM512 1419v84q-31 14 -55 15q-12 4 -58 4q-197 0 -196 -195v-481h-115v-84h115v-762h84v762h200v84h-200v457q0 135 114 135l56 -6z" />
<glyph unicode="&#xfb02;" horiz-adv-x="948" d="M795 0v1516h-82v-1516h82zM512 1419v84q-31 14 -55 15q-12 4 -58 4q-197 0 -196 -195v-481h-115v-84h115v-762h84v762h200v84h-200v457q0 135 114 135l56 -6z" />
<glyph unicode="&#xfb03;" horiz-adv-x="1486" d="M1370 1065q-16 68 -67 68q-68 -12 -68 -68q2 -31 20 -49q25 -18 48 -19q67 0 67 68zM1343 0v846h-83v-846h83zM1067 1419v84q-31 14 -55 15q-12 4 -58 4q-197 0 -196 -195v-481h-115v-84h115v-762h84v762h200v84h-200v457q0 135 114 135l56 -6zM512 1419v84 q-31 14 -55 15q-12 4 -58 4q-197 0 -196 -195v-481h-115v-84h115v-762h84v762h200v84h-200v457q0 135 114 135l56 -6z" />
<glyph unicode="&#xfb04;" horiz-adv-x="1503" d="M1350 0v1516h-82v-1516h82zM1067 1419v84q-31 14 -55 15q-12 4 -58 4q-197 0 -196 -195v-481h-115v-84h115v-762h84v762h200v84h-200v457q0 135 114 135l56 -6zM512 1419v84q-31 14 -55 15q-12 4 -58 4q-197 0 -196 -195v-481h-115v-84h115v-762h84v762h200v84h-200v457 q0 135 114 135l56 -6z" />
</font>
</defs>
</svg>
